<?xml version="1.0" encoding="UTF-8" standalone="no"?>
<svg
   xmlns:dc="http://purl.org/dc/elements/1.1/"
   xmlns:cc="http://creativecommons.org/ns#"
   xmlns:rdf="http://www.w3.org/1999/02/22-rdf-syntax-ns#"
   xmlns:svg="http://www.w3.org/2000/svg"
   xmlns="http://www.w3.org/2000/svg"
   xmlns:sodipodi="http://sodipodi.sourceforge.net/DTD/sodipodi-0.dtd"
   xmlns:inkscape="http://www.inkscape.org/namespaces/inkscape"
   viewBox="0 0 24 24"
   stroke-miterlimit="1.414"
   id="svg4184"
   version="1.1"
   inkscape:version="0.91 r"
   sodipodi:docname="github.svg"
   width="24"
   height="24"
   style="stroke-linejoin:round;stroke-miterlimit:1.41400003">
  <metadata
     id="metadata4192">
    <rdf:RDF>
      <cc:Work
         rdf:about="">
        <dc:format>image/svg+xml</dc:format>
        <dc:type
           rdf:resource="http://purl.org/dc/dcmitype/StillImage" />
        <dc:title></dc:title>
      </cc:Work>
    </rdf:RDF>
  </metadata>
  <defs
     id="defs4190" />
  <sodipodi:namedview
     pagecolor="#ffffff"
     bordercolor="#666666"
     borderopacity="1"
     objecttolerance="10"
     gridtolerance="10"
     guidetolerance="10"
     inkscape:pageopacity="0"
     inkscape:pageshadow="2"
     inkscape:window-width="1920"
     inkscape:window-height="1053"
     id="namedview4188"
     showgrid="false"
     fit-margin-top="0"
     fit-margin-left="0"
     fit-margin-right="0"
     fit-margin-bottom="0"
     inkscape:zoom="19.26866"
     inkscape:cx="0.44692907"
     inkscape:cy="18.158126"
     inkscape:window-x="1920"
     inkscape:window-y="0"
     inkscape:window-maximized="1"
     inkscape:current-layer="svg4184" />
  <path
     d="m 12,1.0000001 c -6.0775,0 -11,5.0503319 -11,11.2793569 0,4.984066 3.1515,9.211004 7.52125,10.70129 0.55,0.105743 0.752125,-0.242506 0.752125,-0.542819 0,-0.267885 -0.00962,-0.977074 -0.01375,-1.917491 C 6.198875,21.201329 5.554,19.007493 5.554,19.007493 5.0535,17.704728 4.33025,17.357888 4.33025,17.357888 c -0.996875,-0.69932 0.077,-0.685222 0.077,-0.685222 1.104125,0.07895 1.684375,1.161775 1.684375,1.161775 0.98175,1.724331 2.575375,1.22663 3.20375,0.937596 0.099,-0.728928 0.38225,-1.22663 0.697125,-1.508614 C 7.549125,16.981439 4.982,16.011414 4.982,11.690011 c 0,-1.23086 0.42625,-2.2375429 1.131625,-3.0270979 -0.12375,-0.2848038 -0.495,-1.4310684 0.09625,-2.9847998 0,0 0.92125,-0.3031328 3.025,1.1561341 0.88,-0.2509657 1.815,-0.3750387 2.75,-0.3806784 0.935,0.00564 1.87,0.1297127 2.75,0.3806784 2.09,-1.4592669 3.01125,-1.1561341 3.01125,-1.1561341 0.59125,1.5537314 0.22,2.699996 0.11,2.9847998 0.70125,0.789555 1.1275,1.7962379 1.1275,3.0270979 0,4.332683 -2.57125,5.287199 -5.01875,5.564952 0.385,0.338381 0.7425,1.029242 0.7425,2.086681 0,1.508614 -0.01375,2.721145 -0.01375,3.087725 0,0.296082 0.1925,0.648562 0.75625,0.535768 C 19.85125,21.486132 23,17.256373 23,12.279357 23,6.050332 18.07475,1.0000001 12,1.0000001"
     id="path4186"
     inkscape:connector-curvature="0" />
</svg>
